<svg xmlns="http://www.w3.org/2000/svg" viewBox="0 0 180.7 173.3">
    <title>Classic Front-end Starter</title>
    <g fill="#393435">
        <path d="M90.3 13.2c-40.5 0-73.5 33-73.5 73.5s33 73.5 73.5 73.5 73.5-33 73.5-73.5c0-40.6-32.9-73.5-73.5-73.5zm.1 140.7C52.6 154 22 123.4 22 85.6c0-37.7 30.6-68.3 68.3-68.3 37.8 0 68.4 30.6 68.4 68.3s-30.6 68.3-68.3 68.3z"/>
        <path d="M168.8 61.2c-2.8-8.7-.1-20.3-5.4-27.6-5.4-7.4-17.3-8.4-24.6-13.7-7.3-5.3-11.9-16.4-20.6-19.2-8.4-2.7-18.6 3.4-27.9 3.4C81 4.1 70.8-2 62.4.6c-8.7 2.9-13.3 13.9-20.6 19.2-7.3 5.4-19.3 6.4-24.6 13.7s-2.6 18.9-5.4 27.6C9.1 69.5 0 77.2 0 86.6s9.1 17.1 11.9 25.5c2.8 8.7.1 20.3 5.4 27.6 5.4 7.4 17.3 8.4 24.6 13.7 7.3 5.3 11.9 16.4 20.6 19.2 8.4 2.7 18.6-3.4 27.9-3.4 9.3 0 19.5 6.1 27.9 3.4 8.7-2.9 13.3-13.9 20.6-19.2 7.3-5.4 19.3-6.4 24.6-13.7 5.3-7.3 2.6-18.9 5.4-27.6 2.7-8.4 11.8-16.2 11.8-25.5s-9.1-17.1-11.9-25.4zM90.3 161c-41 0-74.3-33.3-74.3-74.3s33.3-74.3 74.3-74.3 74.3 33.3 74.3 74.3S131.3 161 90.3 161z"/>
        <path d="M21 70.8V107h138.7V70.8H21zm12.6 23.8l-3.7-2-3.6 2 .7-4.1-3-2.9 4.1-.6 1.8-3.7 1.9 3.7 4 .6-2.9 2.9.7 4.1zm21.3 1.5c-.8.3-1.8.5-2.8.5-1.4.1-2.6-.2-3.7-.8-1.1-.6-1.9-1.5-2.5-2.6-.6-1.1-.9-2.4-.9-3.8 0-1.5.3-2.8 1-3.9s1.5-1.9 2.6-2.5c1.1-.6 2.3-.8 3.5-.8 1.6 0 3.1.4 4.6 1.1-.2.9-.2 2-.2 3.3-.3.2-.9.3-1.6.3 0-1.2-.3-2.1-.7-2.6-.4-.5-1.1-.8-1.9-.8-1.3 0-2.3.5-2.9 1.5-.6 1-.9 2.3-.9 3.8 0 1.8.4 3.4 1.2 4.5.8 1.2 2 1.7 3.5 1.7.6 0 1.1-.1 1.7-.3.6-.2 1.2-.4 1.8-.8.1.1.2.2.3.4s.2.3.2.5c-.7.6-1.5 1-2.3 1.3zm15.4.5h-4.9c-2 0-4 0-6 .1 0-.6 0-1 .1-1.3.4 0 .7-.1.9-.2.2-.1.3-.3.4-.6.1-.3.1-.8.1-1.4v-7.4c0-.6 0-1-.1-1.3-.1-.3-.2-.5-.4-.6-.2-.1-.5-.2-.9-.2-.1-.3-.1-.8-.1-1.3 1.1 0 2.1.1 3.2.1 1.3 0 2.3 0 3.2-.1 0 .6 0 1-.1 1.3-.4 0-.7.1-.9.2-.2.1-.3.3-.4.6-.1.3-.1.7-.1 1.3V93c0 .6 0 1.1.1 1.4.1.3.3.5.5.7.2.2.6.2 1.1.2h.3c.9 0 1.6-.2 2-.7.4-.4.8-1.1 1.1-2.1.8.1 1.3.3 1.6.6-.3 1-.5 2.1-.7 3.5zm13.6-.1c-1.4 0-2.5 0-3.1.1 0-.6 0-1 .1-1.3.3-.1.6-.2.7-.3.2-.1.2-.3.2-.5s-.1-.5-.3-.9l-.5-1.1c-1.9 0-3.6 0-5.1.1l-.3.7c-.1.4-.2.7-.2.9 0 .6.3.9 1 1 .1.3.1.8.1 1.3-.5 0-1.2-.1-2.2-.1-.9 0-1.5 0-1.9.1 0-.5.1-1 .2-1.3.3-.1.6-.2.9-.5.2-.3.5-.8.8-1.7l4.4-10.8c.2 0 .4-.1.6-.1h.7L84.9 93c.3.7.5 1.1.7 1.4.2.3.3.5.5.6.2.1.3.2.5.2.1.5.2.9.2 1.4-.7 0-1.6-.1-2.9-.1zm13.7-.4c-.9.8-2.2 1.2-3.9 1.2-.9-.6-1.7-.7-2.5-.9-.8-.2-1.5-.5-2.3-.9.2-.9.3-2 .3-3.3.5-.1 1.1-.2 1.9-.2.1 1.2.3 2.1.7 2.6.4.5 1 .8 2 .8.8 0 1.4-.2 1.7-.5.4-.3.6-.7.6-1.2 0-.4-.1-.7-.3-1-.2-.3-.5-.5-.9-.7-.4-.2-.9-.5-1.5-.7-.9-.4-1.6-.8-2.2-1.1-.6-.4-1-.8-1.4-1.4s-.6-1.4-.6-2.2c0-1.3.4-2.4 1.3-3.1s2-1 3.4-1c.8 0 1.5.1 2.3.3.7.2 1.3.4 1.7.7 0 1.3 0 2.3.1 3-.2.1-.5.2-.9.3-.3.1-.7.1-1 .1-.2-1.1-.5-1.9-.9-2.3-.4-.4-.9-.6-1.5-.6s-1.1.1-1.4.4c-.3.3-.5.7-.5 1.2 0 .4.1.8.4 1.1.3.3.6.6 1 .8.4.2.9.5 1.6.8.9.4 1.6.8 2.2 1.2.6.3 1 .8 1.4 1.4.4.6.6 1.3.6 2.2 0 1.3-.5 2.3-1.4 3zm12.6 0c-.9.8-2.2 1.2-3.9 1.2-.9-.6-1.7-.7-2.5-.9-.8-.2-1.5-.5-2.3-.9.2-.9.3-2 .3-3.3.5-.1 1.1-.2 1.9-.2.1 1.2.3 2.1.7 2.6.4.5 1 .8 2 .8.8 0 1.4-.2 1.7-.5.4-.3.6-.7.6-1.2 0-.4-.1-.7-.3-1-.2-.3-.5-.5-.9-.7s-.9-.5-1.5-.7c-.9-.4-1.6-.8-2.2-1.1-.6-.4-1-.8-1.4-1.4-.4-.6-.6-1.4-.6-2.2 0-1.3.4-2.4 1.3-3.1.9-.7 2-1 3.4-1 .8 0 1.5.1 2.3.3.7.2 1.3.4 1.7.7 0 1.3 0 2.3.1 3-.2.1-.5.2-.9.3-.3.1-.7.1-1 .1-.2-1.1-.5-1.9-.9-2.3-.4-.4-.9-.6-1.5-.6s-1.1.1-1.4.4c-.3.3-.5.7-.5 1.2 0 .4.1.8.4 1.1s.6.6 1 .8c.4.2.9.5 1.6.8.9.4 1.6.8 2.2 1.2.6.3 1 .8 1.4 1.4.4.6.6 1.3.6 2.2 0 1.3-.5 2.3-1.4 3zM120.4 83c0 .2-.1.4-.1.6-.4 0-.7.1-.9.2-.2.1-.3.3-.4.6s-.1.7-.1 1.3v7.5c0 .6 0 1 .1 1.3.1.3.2.5.4.6.2.1.5.2.9.2.1.3.1.7.1 1.3-.7 0-1.7-.1-3-.1s-2.5 0-3.3.1c0-.5 0-.9.1-1.3.4 0 .7-.1.9-.2s.3-.3.4-.6.1-.7.1-1.3v-7.5c0-.6-.1-1-.1-1.3-.1-.3-.2-.5-.4-.6-.2-.1-.5-.2-.9-.2-.1-.3-.1-.7-.1-1.3.7 0 1.8.1 3.2.1 1.2 0 2.2 0 3.1-.1v.7zm12.2 13.1c-.8.3-1.8.5-2.8.5-1.4.1-2.6-.2-3.7-.8-1.1-.6-1.9-1.5-2.5-2.6-.6-1.1-.9-2.4-.9-3.8 0-1.5.3-2.8 1-3.9s1.5-1.9 2.6-2.5c1.1-.6 2.3-.8 3.5-.8 1.6 0 3.1.4 4.6 1.1-.2.9-.2 2-.2 3.3-.3.2-.9.3-1.6.3 0-1.2-.3-2.1-.7-2.6-.4-.5-1.1-.8-1.9-.8-1.3 0-2.3.5-2.9 1.5-.6 1-.9 2.3-.9 3.8 0 1.8.4 3.4 1.2 4.5.8 1.2 2 1.7 3.5 1.7.6 0 1.1-.1 1.7-.3.6-.2 1.2-.4 1.8-.8.1.1.2.2.3.4.1.2.2.3.2.5-.7.6-1.5 1-2.3 1.3zm20.5-1.5l-3.7-2-3.6 2 .7-4.1-3-2.9 4.1-.6 1.8-3.7 1.9 3.7 4 .6-2.9 2.9.7 4.1z"/>
        <path d="M78.5 86.1l-.9 2.7-1 2.7h4v-.1l-1.1-2.6c-.4-.8-.7-1.7-1-2.7z"/>
        <path d="M61.4 119.5v2.6c-.4 0-.7 0-.9-.1 0-.3-.1-.5-.2-.6-.1-.1-.4-.1-.7-.1h-.3v.7c0 .5.1.8.3 1s.5.3.9.3c.1.2.1.5.1.9h-4.3c0-.4 0-.7.1-.9.2 0 .4-.1.5-.1s.2-.2.2-.3c0-.2.1-.4.1-.8v-4c0-.2-.1-.3-.2-.3s-.3-.1-.5-.1c-.1-.3-.1-.6-.1-.9h6.1c0 .3 0 .7.1 1 0 .4.1.7.2.9-.3.1-.7.2-1.1.2-.1-.4-.2-.8-.4-1s-.6-.3-1.1-.3h-.6v2.9h.3c.3 0 .6-.1.7-.2.1-.1.2-.3.2-.6-.2-.1.1-.2.6-.2zm9.2 3.5c.1.1.2.2.3.2.1 0 .3.1.5.1 0 .3 0 .6-.1.9-1.3 0-2.1 0-2.5.1l-.1-.3c-.3-.7-.5-1.1-.7-1.4-.2-.4-.4-.6-.5-.8-.2-.2-.3-.3-.6-.5h-.4v.7c0 .4 0 .7.1.9 0 .2.1.3.2.4s.2.1.4.1c.1.1.1.4.1.9h-3.7c0-.4 0-.6.1-.9.2 0 .4-.1.5-.1.1-.1.2-.2.2-.3 0-.2.1-.4.1-.8v-3.4c0-.3 0-.6-.1-.7 0-.2-.1-.3-.2-.3-.1-.1-.3-.1-.5-.1 0-.1 0-.2-.1-.4s0-.3 0-.4h4c2 0 3 .7 3 2.1 0 .6-.1 1-.4 1.4s-.6.6-1.1.8c.2.1.4.1.5.2s.3.2.4.4c.1.2.3.5.6.9-.2.1-.1.2 0 .3zm-3-2.9c.2-.3.4-.6.4-1.1s-.1-.8-.3-1.1c-.2-.3-.5-.4-.8-.4-.2 0-.3 0-.5.1v2.8h.3c.4.1.7-.1.9-.3zm5.9 3.7c-.6-.3-1-.8-1.3-1.4s-.5-1.3-.5-2c0-.8.2-1.4.5-2s.8-1 1.3-1.3c.6-.3 1.2-.5 2-.5s1.4.2 2 .5 1 .7 1.3 1.3c.3.5.5 1.2.5 1.9 0 .8-.2 1.5-.5 2.1s-.8 1.1-1.3 1.4-1.2.5-2 .5c-.7 0-1.4-.2-2-.5zm3.2-1.2c.2-.5.4-1.2.4-2.1 0-.6-.1-1.1-.2-1.5s-.3-.8-.6-1.1c-.3-.3-.6-.4-.9-.4-.4 0-.8.2-1 .7s-.4 1.1-.4 2 .1 1.7.4 2.3.7.9 1.2.9.9-.2 1.1-.8zm11-5.9v.4s0 .3-.1.4c-.2 0-.3.1-.4.2s-.2.2-.2.4-.1.5-.1 1v5c-.1 0-.3.1-.4.1h-.6l-3.8-5.1v2.6c0 .4 0 .8.1 1 0 .2.1.4.2.4.1.1.3.1.5.2.1.2.1.5.1.9h-2.7c0-.4 0-.7.1-.9.2 0 .4-.1.5-.2s.2-.2.3-.5.1-.5.1-.9V118l-.2-.2c-.1-.1-.1-.2-.2-.2s-.3-.1-.5-.1c-.1-.2-.1-.5-.1-.9H83l3 4.2v-1.7c0-.4 0-.8-.1-1 0-.2-.1-.4-.3-.4s-.3-.1-.6-.2c-.1-.2-.1-.5-.1-.9h1.4c.7.1 1.1.1 1.4.1zm5.8.9v4.6c0 .4 0 .6.1.8s.2.3.3.3c.1.1.4.1.7.1.1.2.1.5.1.9h-4.6v-.4c0-.2.1-.3.1-.4.3 0 .6-.1.7-.1.2-.1.3-.2.3-.3.1-.2.1-.4.1-.8v-4.6c-.4 0-.7.1-.9.3-.2.2-.4.6-.5 1.1-.5 0-.9-.1-1.1-.2.1-.3.1-.7.2-1.1s.1-.8.1-1.1h6.8c0 .3 0 .7.1 1 0 .4.1.7.2 1.1-.3.1-.7.2-1.1.2-.1-.5-.2-.9-.4-1.1-.2-.2-.5-.3-.8-.3h-.4zm6 4.3c-1.3 0-2.4 0-3.1.1v-.6s.1-.4.1-.6h3.1c0 .4 0 .8-.1 1.1zm7.5.1c.2.1.4.1.5.2-.2.5-.3 1.2-.3 2h-6.3c0-.4 0-.6.1-.9.2 0 .4-.1.5-.1.1-.1.2-.2.2-.3 0-.2.1-.4.1-.8v-3.3c0-.3 0-.6-.1-.7s-.1-.3-.2-.3c-.1-.1-.3-.1-.5-.1-.1-.2-.1-.5-.1-.9h6c0 .3 0 .7.1 1 0 .4.1.7.2.9-.3.1-.7.2-1.1.2-.1-.4-.2-.8-.4-1s-.6-.3-1.1-.3h-.5v2.5c.3 0 .6-.1.7-.2s.2-.3.2-.6c.2-.1.5-.1 1-.1v2.6c-.4 0-.7 0-.9-.1 0-.3-.1-.5-.2-.6s-.4-.1-.7-.1v1.2c0 .3 0 .6.1.8.1.2.1.3.3.4.1.1.3.1.5.1h.2c.4 0 .7-.1.9-.3.2-.2.4-.6.5-1.2-.2-.1.1-.1.3 0zm8.5-5.3v.4c0 .2 0 .3-.1.4-.2 0-.3.1-.4.2s-.2.2-.2.4-.1.5-.1 1v5c-.1 0-.3.1-.4.1h-.6l-3.8-5.1v2.6c0 .4 0 .8.1 1 0 .2.1.4.2.4.1.1.3.1.5.2.1.2.1.5.1.9h-2.7c0-.4 0-.7.1-.9.2 0 .4-.1.5-.2s.2-.2.3-.5.1-.5.1-.9V118l-.2-.2c-.1-.1-.1-.2-.2-.2s-.3-.1-.5-.1c-.1-.2-.1-.5-.1-.9h2.7l3 4.2v-1.7c0-.4 0-.8-.1-1 0-.2-.1-.4-.3-.4-.1-.1-.3-.1-.6-.2-.1-.2-.1-.5-.1-.9h1.4c.8.1 1.1.1 1.4.1zm6.6.3c.6.2 1 .5 1.4 1.1.3.5.5 1.3.5 2.2 0 1.1-.2 1.9-.7 2.5s-1 1-1.6 1.1c-.6.2-1.2.3-1.7.3h-3.4c0-.4 0-.6.1-.9.2 0 .4-.1.5-.1.1-.1.2-.2.2-.3 0-.2.1-.4.1-.8v-3.3c0-.3 0-.6-.1-.7s-.1-.3-.2-.3c-.1-.1-.3-.1-.5-.1-.1-.2-.1-.5-.1-.9h3.5c.8-.1 1.5 0 2 .2zm-.7 5.8c.3-.4.4-1.2.4-2.3 0-2-.6-2.9-1.7-2.9-.2 0-.3 0-.4.1v4.4c0 .3 0 .6.1.8.1.2.1.3.3.4.1.1.3.1.5.1s.5-.2.8-.6zm-57.9 14.1c.1-.5.2-1.1.2-1.9.3-.1.8-.1 1.4-.1 0 .5.1.8.2 1.1.1.2.2.4.3.5.1.1.4.1.6.1.4 0 .6-.1.8-.2s.3-.3.3-.5-.1-.4-.3-.5c-.2-.1-.5-.3-.9-.5-.5-.2-.9-.4-1.2-.6-.3-.2-.6-.5-.8-.8-.2-.3-.3-.8-.3-1.3 0-.8.3-1.4.8-1.7.5-.4 1.1-.6 1.9-.6.4 0 .8 0 1.3.1s.8.2 1 .3c0 .8 0 1.3.1 1.7-.1.1-.3.2-.6.2-.2 0-.5.1-.7.1-.1-.6-.2-1-.4-1.2s-.5-.3-.8-.3c-.2 0-.4.1-.6.2-.2.1-.2.3-.2.5s.1.4.3.6c.2.2.6.3 1.1.6.5.2.9.4 1.2.6.3.2.6.5.8.8s.3.8.3 1.2c0 .7-.3 1.3-.8 1.7s-1.2.6-2.2.6c-1.1-.1-2-.3-2.8-.7zm11.1-6.1v4.6c0 .4 0 .6.1.8s.2.3.3.3c.1.1.4.1.7.1.1.2.1.5.1.9h-4.6v-.4s.1-.3.1-.4c.3 0 .6-.1.7-.1.2-.1.3-.2.3-.3.1-.2.1-.4.1-.8v-4.6c-.4 0-.7.1-.9.3-.2.2-.4.6-.5 1.1-.5 0-.9-.1-1.1-.2.1-.3.1-.7.2-1 .1-.4.1-.8.1-1.1H77c0 .3 0 .7.1 1s.1.7.2 1.1c-.3.1-.7.2-1.1.2-.1-.5-.2-.9-.4-1.1-.2-.2-.5-.3-.8-.3h-.4v-.1zm10.4 6.6h-3.6c0-.3 0-.6.1-.9.2 0 .3-.1.4-.2.1-.1.1-.2.1-.3s0-.2-.1-.4l-.1-.2c-1 0-1.8 0-2.5.1 0 .1-.1.2-.1.3s0 .3.1.4c.1.1.2.2.4.2.1.2.1.5.1.9h-2.4c0-.3 0-.6.1-.9.2 0 .3-.1.4-.3.1-.1.3-.4.4-.8l2.3-5.5c.1 0 .3 0 .4-.1h.4l2.4 5.4c.2.4.3.7.4.8.1.2.2.3.3.4s.2.1.3.1c.1.4.2.6.2 1zm-3.7-2.6l-.4-.9-.6-1.5c-.1.5-.3 1-.5 1.5l-.4.9h1.9zm11.8 1.4c.1.1.2.2.3.2.1 0 .3.1.5.1 0 .3 0 .6-.1.9-1.3 0-2.1 0-2.5.1l-.1-.3c-.3-.7-.5-1.1-.7-1.4-.2-.4-.4-.6-.5-.8-.2-.2-.3-.3-.6-.5H89v.7c0 .4 0 .7.1.9 0 .2.1.3.2.4.1.1.2.1.4.1.1.1.1.4.1.9h-3.7c0-.4 0-.6.1-.9.2 0 .4-.1.5-.1.1-.1.2-.2.2-.3 0-.2.1-.4.1-.8V132c0-.3 0-.6-.1-.7 0-.2-.1-.3-.2-.3-.1-.1-.3-.1-.5-.1 0-.1 0-.2-.1-.4s0-.3 0-.4h4c2 0 3 .7 3 2.1 0 .6-.1 1-.4 1.4s-.6.6-1.1.8c.2.1.4.1.5.2.1.1.3.2.4.4s.3.5.6.9c-.2.1-.1.2 0 .3zm-3-2.9c.2-.3.4-.6.4-1.1s-.1-.8-.3-1.1c-.2-.3-.5-.4-.8-.4-.2 0-.3 0-.5.1v2.8h.3c.3.1.6-.1.9-.3zm8.5-2.5v4.6c0 .4 0 .6.1.8s.2.3.3.3c.1.1.4.1.7.1.1.2.1.5.1.9h-4.6v-.4s.1-.3.1-.4c.3 0 .6-.1.7-.1.2-.1.3-.2.3-.3.1-.2.1-.4.1-.8v-4.6c-.4 0-.7.1-.9.3-.2.2-.4.6-.5 1.1-.5 0-.9-.1-1.1-.2.1-.3.1-.7.2-1 .1-.4.1-.8.1-1.1h6.8c0 .3 0 .7.1 1s.1.7.2 1.1c-.3.1-.7.2-1.1.2-.1-.5-.2-.9-.4-1.1-.2-.2-.5-.3-.8-.3h-.4v-.1zm9.5 4.4c.2.1.4.1.5.2-.2.5-.3 1.2-.3 2H102c0-.4 0-.6.1-.9.2 0 .4-.1.5-.1.1-.1.2-.2.2-.3 0-.2.1-.4.1-.8V132c0-.3 0-.6-.1-.7 0-.2-.1-.3-.2-.3-.1-.1-.3-.1-.5-.1-.1-.2-.1-.5-.1-.9h6c0 .3 0 .7.1 1 0 .4.1.7.2.9-.3.1-.7.2-1.1.2-.1-.4-.2-.8-.4-1-.2-.2-.6-.3-1.1-.3h-.5v2.5c.3 0 .6-.1.7-.2.1-.1.2-.3.2-.6.2-.1.6-.1 1-.1v2.6c-.4 0-.7 0-.9-.1 0-.3-.1-.5-.2-.6s-.4-.1-.7-.1v1.2c0 .3 0 .6.1.8s.1.3.3.4c.1.1.3.1.5.1h.2c.4 0 .7-.1.9-.3.2-.2.4-.6.5-1.1-.2-.2.1-.2.3-.1zm8.6 1c.1.1.2.2.3.2.1 0 .3.1.5.1 0 .3 0 .6-.1.9-1.3 0-2.1 0-2.5.1l-.1-.3c-.3-.7-.5-1.1-.7-1.4-.2-.4-.4-.6-.5-.8-.2-.2-.3-.3-.6-.5h-.4v.7c0 .4 0 .7.1.9 0 .2.1.3.2.4.1.1.2.1.4.1.1.1.1.4.1.9h-3.7c0-.4 0-.6.1-.9.2 0 .4-.1.5-.1.1-.1.2-.2.2-.3 0-.2.1-.4.1-.8V132c0-.3 0-.6-.1-.7 0-.2-.1-.3-.2-.3-.1-.1-.3-.1-.5-.1 0-.1 0-.2-.1-.4s0-.3 0-.4h4c2 0 3 .7 3 2.1 0 .6-.1 1-.4 1.4s-.6.6-1.1.8c.2.1.4.1.5.2.1.1.3.2.4.4s.3.5.6.9c-.2.1-.1.2 0 .3zm-3-2.9c.2-.3.4-.6.4-1.1s-.1-.8-.3-1.1c-.2-.3-.5-.4-.8-.4-.2 0-.3 0-.5.1v2.8h.3c.4.1.6-.1.9-.3zM61.4 51.9c0-.4-.1-.6-.1-.8 0-.8.2-1.6.6-2.3l11.2-6.5c1.1.2 2 .8 2.9 1.8l-11 6.3 10 5.2c.1.4.1.7.1 1.2 0 1.1-.2 1.9-.6 2.4-4.7-2.8-9.1-5.3-13.1-7.3zM88 58.7l8.7-23.4c1 0 1.9.2 2.7.7l-8.6 23.2c-1.2.1-2.2-.1-2.8-.5zm29.7-8.5c0 .7-.2 1.3-.6 1.9-1.8 1-3.6 2-5.3 3-1.7 1-3.7 2.3-6 3.8-.8-.7-1.2-1.7-1.2-3l9.7-5.6-10.1-6.1c.2-.5.5-.9.9-1.3s.9-.7 1.4-.9l11.1 7.2c0 .5.1.8.1 1z"/>
    </g>
</svg>
